<!-- <svg viewBox="0 0 1069 1024" version="1.1" xmlns="http://www.w3.org/2000/svg" width="48" height="48"><path d="M537.6 459.294118m-316.235294 0a316.235294 316.235294 0 1 0 632.470588 0 316.235294 316.235294 0 1 0-632.470588 0Z" fill="#E9EAEB"></path><path d="M516.517647 941.176471c-141.552941 0-277.082353-42.164706-379.482353-120.470589l18.070588-24.094117c97.882353 73.788235 225.882353 114.447059 361.411765 114.447059 141.552941 0 275.576471-43.670588 374.964706-124.988236l19.576471 24.094118c-105.411765 84.329412-245.458824 131.011765-394.541177 131.011765z" fill="#BCC0C4"></path><path d="M724.329412 712.282353l-201.788236-132.517647v75.294118h-30.117647c-188.235294-15.058824-337.317647-91.858824-337.317647-176.188236 0-18.070588 6.023529-36.141176 21.082353-52.705882v-18.070588c-75.294118 39.152941-103.905882 85.835294-103.905882 135.529411 0 111.435294 176.188235 215.341176 420.141176 231.905883h30.117647v75.294117l201.788236-138.541176z" fill="#A3D4FF"></path><path d="M507.482353 879.435294v-88.847059h-15.058824C243.952941 774.023529 57.223529 667.105882 57.223529 543.623529c0-60.235294 37.647059-109.929412 111.435295-147.57647l22.588235-12.047059v48.188235l-3.011765 4.517647c-12.047059 13.552941-16.564706 27.105882-16.564706 43.670589 0 73.788235 144.564706 146.070588 323.764706 161.129411h13.552941v-88.847058L752.941176 713.788235l-245.458823 165.647059z m15.058823-118.964706h15.058824v61.741177l159.623529-109.929412-159.623529-105.411765v61.741177h-45.176471C290.635294 653.552941 140.047059 572.235294 140.047059 478.870588c0-12.047059 1.505882-24.094118 6.023529-34.635294-39.152941 28.611765-58.729412 61.741176-58.729412 99.388235 0 105.411765 177.694118 200.282353 405.082353 216.847059h30.117647z" fill="#2A5082"></path><path d="M942.682353 438.211765c15.058824 16.564706 22.588235 34.635294 22.588235 54.211764 0 69.270588-103.905882 129.505882-248.470588 150.588236l108.423529 61.741176c103.905882-37.647059 171.670588-99.388235 171.670589-167.152941 0-34.635294-19.576471-69.270588-54.211765-99.388235z" fill="#A3D4FF"></path><path d="M823.717647 722.823529l-152.094118-87.341176 42.164706-6.023529c138.541176-21.082353 236.423529-76.8 236.42353-135.529412 0-15.058824-6.023529-30.117647-19.576471-45.176471l21.082353-21.082353c37.647059 33.129412 58.729412 72.282353 58.729412 111.435294 0 72.282353-66.258824 138.541176-182.211765 180.705883l-4.517647 3.011764z m-63.247059-70.77647l66.258824 37.647059c97.882353-37.647059 155.105882-93.364706 155.105882-150.588236 0-9.035294-1.505882-16.564706-3.011765-24.094117-16.564706 60.235294-97.882353 111.435294-218.352941 137.035294zM552.658824 519.529412h-75.294118c-16.564706 0-30.117647-13.552941-30.117647-30.117647v-150.588236c0-16.564706 13.552941-30.117647 30.117647-30.117647h75.294118c16.564706 0 30.117647 13.552941 30.117647 30.117647v30.117647h-30.117647v-30.117647h-75.294118v64.752942c6.023529-3.011765 12.047059-4.517647 18.070588-4.517647h57.22353c16.564706 0 30.117647 13.552941 30.117647 30.117647v60.235294c0 16.564706-13.552941 30.117647-30.117647 30.117647z m-75.294118-84.329412v54.211765h75.294118v-60.235294h-57.22353c-6.023529 0-10.541176 3.011765-13.552941 9.035294l-4.517647-3.011765zM718.305882 519.529412h-60.235294c-25.6 0-45.176471-19.576471-45.17647-45.176471v-120.470588c0-25.6 19.576471-45.176471 45.17647-45.176471h60.235294c25.6 0 45.176471 19.576471 45.176471 45.176471v120.470588c0 25.6-19.576471 45.176471-45.176471 45.176471z m-60.235294-180.705883c-9.035294 0-15.058824 6.023529-15.058823 15.058824v120.470588c0 9.035294 6.023529 15.058824 15.058823 15.058824h60.235294c9.035294 0 15.058824-6.023529 15.058824-15.058824v-120.470588c0-9.035294-6.023529-15.058824-15.058824-15.058824h-60.235294zM326.776471 399.058824h75.294117v30.117647h-75.294117z" fill="#2A5082"></path><path d="M387.011765 519.529412h-105.411765v-30.117647h105.411765v-150.588236h-90.352941v-30.117647h90.352941c16.564706 0 30.117647 13.552941 30.117647 30.117647v150.588236c0 16.564706-13.552941 30.117647-30.117647 30.117647zM838.776471 353.882353c-33.129412 0-60.235294-27.105882-60.235295-60.235294s27.105882-60.235294 60.235295-60.235294 60.235294 27.105882 60.235294 60.235294-27.105882 60.235294-60.235294 60.235294z m0-90.352941c-16.564706 0-30.117647 13.552941-30.117647 30.117647s13.552941 30.117647 30.117647 30.117647 30.117647-13.552941 30.117647-30.117647-13.552941-30.117647-30.117647-30.117647z" fill="#2A5082"></path><path d="M920.094118 237.929412c-99.388235-79.811765-233.411765-124.988235-374.964706-124.988236-135.529412 0-263.529412 40.658824-361.411765 114.447059L165.647059 203.294118c102.4-78.305882 237.929412-120.470588 379.482353-120.470589 149.082353 0 289.129412 46.682353 394.541176 131.011765l-19.57647 24.094118z" fill="#BCC0C4"></path></svg> -->
<svg viewBox="0 0 1025 1024" version="1.1" xmlns="http://www.w3.org/2000/svg" width="128" height="128"><path d="M222.66 554.69c-0.08 0.03-0.16 0.06-0.25 0.1-4.21-5.52-8.26-11.16-12.13-16.89a365.739 365.739 0 0 1-29.43-52.37c0.06-0.03 0.13-0.06 0.19-0.08a366.663 366.663 0 0 0 41.62 69.24zM1025.73 688.96c0 71.64-50.91 137.96-143.34 186.74-83.17 43.9-195.56 71.41-316.46 77.47-0.68 0.04-1.36 0.05-2.03 0.05-21.17 0-38.85-16.61-39.92-38-1.1-22.06 15.89-40.84 37.95-41.95 109.5-5.48 210.04-29.75 283.12-68.32 33.27-17.56 59.98-37.92 77.22-58.88 15.57-18.92 23.46-38.14 23.46-57.11 0-43.34-42.05-88.31-115.36-123.37-7.86-3.76-15.98-7.36-24.32-10.8-0.09-0.04-0.17-0.07-0.25-0.1a366.663 366.663 0 0 0 41.62-69.24 527.989 527.989 0 0 1 17.47 7.97c103.72 49.61 160.84 119.05 160.84 195.54zM819.66 203.91c-16.7-39.48-40.59-74.92-71.02-105.36-30.44-30.43-65.88-54.32-105.36-71.02-40.9-17.3-84.32-26.07-129.05-26.07s-88.15 8.77-129.05 26.07c-39.48 16.7-74.92 40.59-105.36 71.02-30.43 30.44-54.32 65.88-71.02 105.36-17.3 40.9-26.07 84.32-26.07 129.05 0 44.73 8.77 88.15 26.07 129.05 1.49 3.52 3.03 7.01 4.64 10.46a328.744 328.744 0 0 0 43.44 69.48c7.17 8.82 14.82 17.3 22.94 25.42 30.44 30.43 65.88 54.32 105.36 71.02 40.9 17.3 84.32 26.07 129.05 26.07s88.15-8.77 129.05-26.07c39.48-16.7 74.92-40.59 105.36-71.02 8.12-8.12 15.77-16.6 22.94-25.42a328.744 328.744 0 0 0 43.44-69.48c1.61-3.45 3.15-6.94 4.64-10.46 17.3-40.9 26.07-84.32 26.07-129.05 0-44.73-8.77-88.15-26.07-129.05zM514.23 81.46c27.2 0 53.41 4.34 77.96 12.36-0.12 0.33-0.26 0.62-0.4 0.87-0.16 0.04-0.38 0.08-0.65 0.12-10.9 1.69-19.75 0.91-29.13 0.08-16.47-1.45-36.98-3.26-62.23 10.01-18.3 9.62-28.15 25.8-36.06 38.8-10.89 17.9-17.47 28.7-41.86 31.45-5.03 0.57-20.36 2.3-39.21-24.08-5.87-8.21-10.34-16.8-13.4-23.51 41-29.03 91.04-46.1 144.98-46.1z m8.67 467.78c-1.54 14.28-2.95 21.38-3.69 24.44-2 3.24-3.41 6.87-4.06 10.77-0.31 0.01-0.61 0.01-0.92 0.01-65.04 0-124.39-24.81-169.08-65.46-21.87-19.9-40.23-43.59-54.02-70.02-15.03-28.76-24.64-60.77-27.5-94.67 2.34-1.26 4.81-2.55 7.37-3.82 17.57-8.7 28.06-10.8 32.33-10.97 2.88 3.44 4.32 7.31 6.6 13.87 5.13 14.72 13.72 39.37 51.4 48.77 20.63 5.15 43.63 0.04 67.98-5.37 34.25-7.61 59.36-12.04 70.66 0.44 5.75 6.36 6.24 15.43 3.79 26.28-2.28 10.12-7.11 21.79-12.62 34.26-7.08 16.05-13.83 31.37-10.2 46.26 0.76 3.12 1.98 6.22 3.74 9.31 6.61 11.57 17.32 17.82 25.93 22.83 12.89 7.53 12.82 8.16 12.29 13.07z m214.43-100.26c-13.79 26.43-32.15 50.12-54.02 70.02-29.09 26.46-64.38 46.2-103.41 56.77 0.95-5.79 1.84-12.46 2.66-20.09 2.06-19.07-2.89-36.35-14.3-49.98-0.21-0.26-0.43-0.51-0.66-0.76-7.45-8.64-16.25-14.36-23.45-18.65 0.65-1.49 1.3-2.96 1.89-4.31 6.36-14.42 15.46-35.04 18.27-57.31 2.83-22.43-0.72-46.55-19.86-67.7-35.59-39.32-89.09-27.44-128.16-18.76-14.15 3.15-33.53 7.45-40.43 5.73-4.2-1.04-5.75-2.02-6.06-2.25-0.8-1.14-2.19-5.12-3.21-8.04-3.55-10.19-8.91-25.57-24.07-39.88-17.32-16.33-42.7-18.6-75.58-6.78 8.22-44.35 28.11-84.64 56.36-117.57 2.79 4.9 5.95 10 9.51 15.09 10.78 15.42 22.99 27.55 36.29 36.07 15.35 9.83 31.81 14.78 49.07 14.78 3.44 0 6.92-0.19 10.43-0.59 53.62-6.05 73.33-38.44 86.37-59.87 4.49-7.38 9.13-15 12.71-16.88 9.65-5.07 15.73-4.53 29.06-3.36 11.35 1 25.48 2.25 43.58-0.55 16.77-2.6 30.61-10.96 40.05-24.18 2.48-3.47 4.52-7.09 6.18-10.78 71.49 44.4 119.18 123.64 119.18 213.81 0 41.82-10.26 81.29-28.4 116.02z" fill="#2f54eb"></path><path d="M847.42 485.45a366.663 366.663 0 0 1-41.62 69.24c0.08 0.03 0.16 0.06 0.25 0.1 4.21-5.52 8.26-11.16 12.13-16.89a365.739 365.739 0 0 0 29.43-52.37c-0.06-0.03-0.13-0.06-0.19-0.08z m-666.38 0c-0.06 0.02-0.13 0.05-0.19 0.08 8.34 18.2 18.21 35.77 29.43 52.37 3.87 5.73 7.92 11.37 12.13 16.89 0.09-0.04 0.17-0.07 0.25-0.1a366.663 366.663 0 0 1-41.62-69.24z" fill="#2f54eb"></path><path d="M458.55 942.3l-89.72 72.31a39.886 39.886 0 0 1-25.08 8.85c-11.68 0-23.26-5.09-31.17-14.9-13.86-17.2-11.15-42.38 6.05-56.25l17.22-13.87c-77.28-14.45-147.01-38.25-201.88-69.35-39.72-22.52-71.11-48.37-93.28-76.84C15.5 759.91 2.73 725.16 2.73 688.96c0-76.49 57.12-145.93 160.84-195.54 5.65-2.7 11.41-5.34 17.28-7.89 8.34 18.2 18.21 35.77 29.43 52.37 3.87 5.73 7.92 11.37 12.13 16.89-8.34 3.44-16.46 7.04-24.32 10.8-73.31 35.06-115.36 80.03-115.36 123.37 0 38.12 32.21 77.38 90.69 110.53 48.18 27.31 110.5 48.23 180.33 60.94l-18.77-29.49c-11.86-18.64-6.36-43.36 12.27-55.23 18.64-11.86 43.36-6.36 55.23 12.27l64.72 101.7c10.93 17.19 7.21 39.84-8.65 52.62z" fill="#2f54eb"></path></svg>